<?xml version="1.0" standalone="no"?>
<!DOCTYPE svg PUBLIC "-//W3C//DTD SVG 20010904//EN"
 "http://www.w3.org/TR/2001/REC-SVG-20010904/DTD/svg10.dtd">
<svg version="1.0" xmlns="http://www.w3.org/2000/svg"
 width="300.000000pt" height="161.000000pt" viewBox="0 0 300.000000 161.000000"
 preserveAspectRatio="xMidYMid meet">
<metadata>
Created by potrace 1.10, written by Peter Selinger 2001-2011
</metadata>
<g transform="translate(0.000000,161.000000) scale(0.100000,-0.100000)"
fill="#a100f2" stroke="none">
<path d="M930 1207 c-19 -6 -37 -13 -40 -16 -3 -4 -23 -20 -45 -36 -22 -16
-88 -74 -147 -128 l-107 -98 -33 37 c-61 69 -128 81 -183 33 -28 -25 -35 -38
-35 -68 0 -45 31 -97 70 -119 16 -9 30 -19 30 -22 0 -3 -22 -20 -49 -38 -66
-46 -161 -49 -161 -6 0 8 7 14 15 14 8 0 15 4 15 9 0 17 -17 21 -34 8 -15 -11
-16 -17 -5 -39 24 -53 107 -48 186 12 49 37 53 38 112 33 34 -3 61 -9 61 -12
0 -3 -11 -18 -25 -33 -14 -15 -25 -29 -25 -31 0 -2 14 -2 31 1 21 3 38 15 55
42 19 29 36 41 69 49 73 18 176 113 175 160 -1 9 -9 0 -20 -20 -24 -45 -81
-96 -134 -120 -22 -10 -42 -16 -44 -15 -4 5 287 388 307 403 19 15 8 15 -39 0z
m-27 -51 c-67 -82 -278 -332 -291 -346 -11 -13 -12 -11 -7 12 4 15 2 42 -4 59
-8 23 -8 34 2 42 77 73 221 202 257 230 58 46 80 47 43 3z m-393 -163 c35 -24
59 -55 60 -75 0 -9 -23 -35 -50 -58 -28 -24 -48 -45 -45 -48 3 -3 20 8 38 24
17 16 42 38 55 48 l22 19 0 -57 0 -58 -52 5 c-71 6 -93 12 -128 37 -39 28 -50
50 -50 99 0 31 6 44 26 60 33 26 90 27 124 4z"/>
<path d="M1931 1075 c-24 -33 -40 -45 -59 -46 -24 -2 -24 -2 -4 -6 21 -4 19
-9 -41 -96 -108 -155 -117 -169 -117 -188 0 -10 9 -23 21 -29 29 -16 118 29
164 82 54 63 42 63 -22 0 -58 -57 -111 -86 -133 -72 -16 10 1 40 103 180 l83
115 60 6 59 6 -54 1 -53 2 24 33 c39 52 41 57 20 57 -11 0 -32 -19 -51 -45z"/>
<path d="M2552 1075 c-26 -37 -37 -45 -62 -45 -17 0 -29 -4 -26 -9 3 -5 16 -7
28 -3 26 6 29 11 -73 -133 -89 -126 -101 -158 -70 -175 32 -16 95 17 161 84
30 31 51 56 48 56 -4 0 -27 -21 -52 -46 -58 -60 -94 -84 -128 -84 -16 0 -28 3
-28 6 0 13 29 57 113 173 l91 123 58 -4 c32 -2 58 -1 58 4 0 4 -25 8 -56 8
l-56 0 31 39 c36 45 37 51 13 51 -10 0 -32 -20 -50 -45z"/>
<path d="M2110 1065 c-10 -12 -10 -19 -2 -27 16 -16 42 -2 42 22 0 24 -22 26
-40 5z"/>
<path d="M2205 925 c-33 -42 -61 -81 -63 -88 -2 -7 7 1 20 18 13 16 35 43 49
59 l26 30 -4 -55 c-9 -108 -52 -179 -111 -179 -36 0 -64 27 -52 51 6 10 17 16
24 13 8 -3 17 -1 21 5 4 7 -3 11 -16 11 -22 0 -22 1 6 30 48 51 17 33 -41 -22
-76 -74 -133 -103 -149 -78 -9 14 8 41 91 140 58 70 70 90 55 90 -35 0 -176
-180 -169 -216 2 -10 16 -23 31 -28 30 -11 68 5 115 48 20 17 22 18 16 3 -9
-25 23 -57 56 -57 52 0 90 12 117 38 16 15 32 25 36 24 15 -4 74 37 91 63 21
33 10 32 -16 0 -11 -14 -32 -32 -48 -40 l-27 -14 -8 90 c-5 64 -3 94 5 104 7
8 10 19 8 25 -2 6 -30 -23 -63 -65z"/>
<path d="M926 919 c-20 -17 -42 -41 -48 -53 -6 -11 13 1 41 28 28 28 54 47 57
43 4 -3 -28 -54 -70 -112 -42 -59 -76 -108 -76 -110 0 -2 10 -1 21 2 12 4 67
52 123 109 92 94 144 129 163 110 11 -11 -14 -51 -81 -135 -36 -45 -66 -83
-66 -85 0 -3 11 -1 23 2 13 4 48 35 76 70 85 102 211 184 211 138 0 -8 -24
-43 -54 -78 -83 -98 -92 -122 -50 -138 22 -9 35 -5 78 19 28 16 68 50 89 75
48 59 40 60 -13 2 -40 -43 -131 -92 -151 -81 -5 4 18 36 51 72 60 66 75 94 68
130 -7 38 -70 28 -124 -19 -33 -29 -36 -30 -30 -10 16 51 -47 70 -100 30 -16
-12 -50 -42 -76 -67 -54 -51 -62 -48 -19 7 16 20 31 46 33 57 5 33 -35 30 -76
-6z"/>
<path d="M1523 935 c-42 -18 -111 -88 -129 -131 -19 -45 -18 -68 6 -89 25 -23
59 -14 105 26 l35 31 -6 -30 c-5 -26 -3 -30 20 -36 16 -4 37 -1 54 8 37 19
120 93 133 120 6 11 -13 -2 -42 -30 -30 -28 -65 -58 -79 -68 -27 -17 -70 -22
-70 -7 0 9 51 76 128 171 30 35 31 40 14 40 -11 0 -25 -7 -33 -16 -12 -14 -14
-14 -21 5 -9 25 -65 28 -115 6z m104 -11 c3 -8 1 -25 -4 -37 -18 -38 -104
-127 -149 -153 -114 -67 -74 70 48 167 52 41 94 50 105 23z"/>
<path d="M2680 932 c-111 -54 -183 -208 -106 -228 25 -6 74 14 95 40 19 23 29
20 24 -9 -4 -19 0 -25 19 -30 13 -3 36 -1 52 5 30 11 146 117 146 133 0 6 -29
-17 -64 -51 -67 -65 -112 -90 -129 -73 -13 13 11 50 91 146 46 54 58 75 46 75
-10 0 -26 -7 -36 -17 -16 -14 -18 -14 -18 -1 0 32 -65 37 -120 10z m107 -8 c8
-22 -8 -51 -66 -115 -88 -98 -180 -125 -146 -43 44 107 190 215 212 158z"/>
<path d="M916 579 c-20 -16 -26 -29 -26 -58 0 -43 13 -58 80 -91 63 -31 90
-59 90 -91 0 -77 -141 -76 -157 1 -3 16 -8 28 -12 26 -10 -6 0 -96 10 -96 5 0
9 4 9 9 0 5 18 3 39 -5 37 -13 61 -10 113 11 9 3 22 20 28 36 20 48 -2 85 -74
121 -79 39 -96 55 -96 89 0 38 38 63 79 54 32 -7 49 -23 68 -64 10 -24 11 -22
12 27 1 47 -11 70 -21 41 -3 -9 -9 -9 -25 0 -34 17 -88 13 -117 -10z"/>
<path d="M2424 586 c-62 -27 -102 -111 -89 -189 5 -27 20 -54 45 -81 38 -40
40 -41 107 -41 55 0 74 4 101 23 17 13 32 28 32 33 0 6 -16 -2 -35 -16 -42
-33 -110 -37 -150 -11 -40 26 -69 99 -61 153 12 86 55 128 129 127 31 -1 46
-8 64 -28 13 -15 23 -36 23 -47 0 -10 5 -19 10 -19 6 0 10 25 10 55 0 30 -4
55 -10 55 -5 0 -10 -7 -10 -15 0 -14 -3 -14 -30 0 -36 18 -94 19 -136 1z"/>
<path d="M565 580 c3 -5 12 -7 20 -3 13 4 15 -16 15 -135 0 -134 -1 -142 -22
-156 -21 -15 -14 -16 100 -16 l122 0 0 29 c0 16 3 36 6 45 3 9 1 16 -4 16 -6
0 -12 -12 -14 -27 -4 -36 -38 -53 -105 -53 l-53 0 0 75 0 75 43 0 c36 0 46 -4
55 -22 9 -20 11 -15 11 30 1 34 -3 51 -9 47 -6 -4 -9 -14 -8 -22 2 -12 -7 -16
-42 -16 l-45 0 -3 52 c-4 64 8 81 58 81 54 0 70 -8 86 -44 l13 -31 1 43 0 42
-116 0 c-71 0 -113 -4 -109 -10z"/>
<path d="M1160 545 c0 -25 5 -45 10 -45 6 0 10 13 10 30 0 34 23 50 69 50 l31
0 0 -145 c0 -127 -2 -145 -17 -154 -14 -8 -4 -10 40 -11 37 0 56 4 52 10 -4 6
-12 9 -19 8 -16 -4 -16 -5 -16 152 l0 140 34 0 c40 0 66 -22 66 -56 0 -13 5
-24 11 -24 8 0 9 11 5 31 -3 17 -6 38 -6 45 0 11 -27 14 -135 14 l-135 0 0
-45z"/>
<path d="M1505 580 c3 -5 12 -7 20 -3 13 4 15 -16 15 -135 0 -134 -1 -142 -22
-156 -21 -15 -14 -16 100 -16 l122 0 0 29 c0 16 3 36 6 45 3 9 1 16 -4 16 -6
0 -12 -12 -14 -27 -4 -36 -38 -53 -105 -53 l-53 0 0 75 0 75 43 0 c36 0 46 -4
55 -22 9 -20 11 -15 11 30 1 34 -3 51 -9 47 -6 -4 -9 -14 -8 -22 2 -12 -7 -16
-42 -16 l-45 0 -3 52 c-4 64 8 81 58 81 54 0 70 -8 86 -44 l13 -31 1 43 0 42
-116 0 c-71 0 -113 -4 -109 -10z"/>
<path d="M1811 543 c1 -45 1 -46 10 -18 11 38 34 55 76 55 l33 0 0 -139 c0
-133 -1 -141 -22 -155 -21 -15 -20 -16 35 -16 33 0 57 4 57 10 0 6 -8 10 -17
8 -16 -3 -18 10 -21 145 l-3 147 34 0 c42 0 65 -17 76 -55 9 -28 9 -27 10 18
l1 47 -135 0 -135 0 1 -47z"/>
<path d="M2168 583 c22 -4 22 -7 22 -139 0 -121 -2 -136 -20 -154 -20 -20 -20
-20 30 -20 30 0 50 4 50 11 0 6 -7 9 -15 5 -13 -5 -15 15 -15 139 0 127 2 145
18 154 13 8 4 10 -38 9 -30 0 -45 -3 -32 -5z"/>
</g>
</svg>
